<svg width="512" height="512" viewBox="0 0 512 512" fill="none" xmlns="http://www.w3.org/2000/svg">
<g clip-path="url(#clip0)">
<path d="M109.047 134.894H108.938C90.8881 134.894 76.2571 149.525 76.2571 167.575C76.2571 185.625 90.8881 200.256 108.938 200.256H256.002V134.894C256.002 134.894 109.047 134.894 109.047 134.894Z" fill="#835848"/>
<path d="M403.066 138.894H402.957H256.003V204.256H403.067C421.117 204.256 435.748 189.625 435.748 171.575C435.748 153.525 421.115 138.894 403.066 138.894Z" fill="#46251E"/>
<path d="M479.321 329.532C479.321 305.467 459.813 285.958 435.747 285.958L403.066 378.554L435.747 471.15H479.321V329.532Z" fill="#7F7774"/>
<path d="M76.2581 285.958C52.1921 285.958 32.6841 305.467 32.6841 329.532V471.149H435.747V285.958H76.2581Z" fill="#A99E9B"/>
<path d="M384.861 73.532H341.287L370.386 503.829C388.436 503.829 403.067 489.198 403.067 471.148V144.341C403.066 118.686 396.456 94.551 384.861 73.532Z" fill="#E0E4EB"/>
<path d="M341.286 73.532H127.143C115.548 94.55 108.938 118.686 108.938 144.34V471.148C108.938 489.198 123.569 503.829 141.619 503.829C153.927 503.829 164.642 497.022 170.215 486.97C175.788 497.022 186.503 503.829 198.811 503.829C211.119 503.829 221.834 497.022 227.407 486.97C232.98 497.022 243.695 503.829 256.003 503.829C268.311 503.829 279.026 497.022 284.599 486.97C290.172 497.022 300.887 503.829 313.195 503.829C325.503 503.829 336.218 497.022 341.791 486.97C347.364 497.022 358.079 503.829 370.387 503.829V144.341L341.286 73.532Z" fill="white"/>
<path d="M256.003 29.958L337.705 177.022H370.386V144.341C370.385 81.169 319.173 29.958 256.003 29.958Z" fill="#46251E"/>
<path d="M256.003 29.958C192.831 29.958 141.62 81.169 141.62 144.341V177.022H337.705V144.341C337.705 81.169 301.125 29.958 256.003 29.958Z" fill="#835848"/>
<path d="M174.301 294.128C169.788 294.128 166.131 290.471 166.131 285.958V275.064C166.131 270.551 169.788 266.894 174.301 266.894C178.814 266.894 182.471 270.551 182.471 275.064V285.958C182.471 290.471 178.813 294.128 174.301 294.128Z" fill="#6990D7"/>
<path d="M337.705 381.277C333.192 381.277 329.535 377.62 329.535 373.107V362.213C329.535 357.7 333.192 354.043 337.705 354.043C342.218 354.043 345.875 357.7 345.875 362.213V373.107C345.875 377.62 342.217 381.277 337.705 381.277Z" fill="#6990D7"/>
<path d="M305.024 413.957C300.511 413.957 296.854 410.3 296.854 405.787V394.893C296.854 390.38 300.511 386.723 305.024 386.723C309.537 386.723 313.194 390.38 313.194 394.893V405.787C313.194 410.3 309.536 413.957 305.024 413.957Z" fill="#6990D7"/>
<path d="M435.747 277.787C431.234 277.787 427.577 281.444 427.577 285.957C427.577 290.47 431.234 294.127 435.747 294.127C455.269 294.127 471.151 310.009 471.151 329.531V462.978H411.236V211.603C429.86 207.808 443.917 191.303 443.917 171.574C443.917 151.677 429.616 135.066 410.68 131.458C408.866 109.787 402.516 88.619 392.015 69.585C390.577 66.979 387.836 65.362 384.861 65.362H349.632C328.16 39.947 296.555 23.363 261.11 21.902L252.417 4.51704C250.399 0.482042 245.494 -1.15296 241.455 0.863042C237.42 2.88204 235.784 7.78804 237.801 11.825L243.12 22.464C238.598 22.939 234.15 23.666 229.786 24.62L219.735 4.51704C217.716 0.482042 212.812 -1.15296 208.773 0.863042C204.738 2.88204 203.102 7.78804 205.119 11.825L213.838 29.262C193.675 36.673 175.988 49.245 162.371 65.362H127.142C124.167 65.362 121.426 66.98 119.989 69.585C109.49 88.616 103.14 109.779 101.324 131.445C82.426 135.022 68.085 151.65 68.085 171.574C68.085 191.302 82.142 207.807 100.766 211.603V405.787C100.766 410.3 104.423 413.957 108.936 413.957C113.449 413.957 117.106 410.3 117.106 405.787V144.342C117.106 122.582 122.264 101.028 132.061 81.704H150.704C139.752 100.047 133.446 121.47 133.446 144.342V177.023C133.446 181.536 137.103 185.193 141.616 185.193H370.381C374.894 185.193 378.551 181.536 378.551 177.023V144.342C378.551 121.47 372.247 100.046 361.293 81.704H379.936C389.732 101.028 394.891 122.582 394.891 144.342V471.15C394.891 484.665 383.895 495.661 370.38 495.661C361.476 495.661 353.255 490.814 348.931 483.011C347.491 480.414 344.754 478.803 341.785 478.803C338.816 478.803 336.08 480.414 334.639 483.011C330.313 490.814 322.093 495.661 313.19 495.661C304.287 495.661 296.065 490.814 291.741 483.011C290.301 480.414 287.564 478.803 284.595 478.803C281.626 478.803 278.89 480.414 277.449 483.011C273.123 490.814 264.903 495.661 256 495.661C247.097 495.661 238.875 490.814 234.551 483.011C233.111 480.414 230.374 478.803 227.405 478.803C224.436 478.803 221.7 480.414 220.259 483.011C215.933 490.814 207.713 495.661 198.81 495.661C189.907 495.661 181.685 490.814 177.361 483.011C175.921 480.414 173.184 478.803 170.215 478.803C167.246 478.803 164.51 480.414 163.069 483.011C158.743 490.814 150.523 495.661 141.62 495.661C128.105 495.661 117.109 484.665 117.109 471.15V438.469C117.109 433.956 113.452 430.299 108.939 430.299C104.426 430.299 100.769 433.956 100.769 438.469V462.98H40.852V329.533C40.852 310.011 56.734 294.129 76.256 294.129C80.769 294.129 84.426 290.472 84.426 285.959C84.426 281.446 80.769 277.789 76.256 277.789C47.725 277.789 24.511 301.002 24.511 329.534V471.15C24.511 475.663 28.168 479.32 32.681 479.32H101.588C105.383 497.944 121.888 512.001 141.617 512.001C152.453 512.001 162.679 507.698 170.213 500.317C177.747 507.697 187.973 512.001 198.809 512.001C209.645 512.001 219.871 507.698 227.405 500.317C234.939 507.697 245.165 512.001 256.001 512.001C266.837 512.001 277.063 507.698 284.597 500.317C292.131 507.697 302.357 512.001 313.193 512.001C324.029 512.001 334.255 507.698 341.789 500.317C349.323 507.697 359.549 512.001 370.385 512.001C390.113 512.001 406.618 497.944 410.414 479.32H479.321C483.834 479.32 487.491 475.663 487.491 471.15V329.533C487.491 301.001 464.278 277.787 435.747 277.787ZM84.428 171.575C84.428 160.924 91.259 151.842 100.768 148.47V194.681C91.259 191.308 84.428 182.226 84.428 171.575ZM362.215 168.851H149.79V144.34C149.79 85.781 197.425 38.139 255.982 38.127C314.588 38.147 362.215 85.785 362.215 144.34V168.851ZM427.577 171.575C427.577 182.226 420.746 191.308 411.237 194.68V148.47C420.745 151.842 427.577 160.924 427.577 171.575Z" fill="black"/>
<path d="M256.003 230.558C267.507 230.558 277.823 223.277 281.675 212.44C283.187 208.188 280.966 203.516 276.713 202.005C272.463 200.49 267.79 202.714 266.279 206.966C264.736 211.304 260.607 214.218 256.002 214.218C251.397 214.218 247.268 211.304 245.725 206.966C244.214 202.714 239.537 200.491 235.291 202.005C231.039 203.516 228.818 208.188 230.329 212.44C234.182 223.277 244.499 230.558 256.003 230.558Z" fill="black"/>
<path d="M225.501 130.724H206.982C202.469 130.724 198.812 134.381 198.812 138.894C198.812 143.407 202.469 147.064 206.982 147.064H217.796C218.917 150.237 221.944 152.511 225.501 152.511C230.014 152.511 233.671 148.854 233.671 144.341V138.894C233.671 134.381 230.013 130.724 225.501 130.724Z" fill="black"/>
<path d="M305.024 130.724H286.505C281.992 130.724 278.335 134.381 278.335 138.894V144.341C278.335 148.854 281.992 152.511 286.505 152.511C290.063 152.511 293.089 150.238 294.21 147.064H305.024C309.537 147.064 313.194 143.407 313.194 138.894C313.194 134.381 309.536 130.724 305.024 130.724Z" fill="black"/>
</g>
<defs>
<clipPath id="clip0">
<rect width="512.001" height="512.001" fill="white"/>
</clipPath>
</defs>
</svg>
